<svg width="115" height="112" viewBox="0 0 115 112" fill="none" xmlns="http://www.w3.org/2000/svg">
<g clip-path="url(#clip0_135_137)">
<path d="M99.1355 62.2197C98.7582 69.9982 93.6147 71.0428 88.8281 71.6705C77.5002 71.6705 71.0002 71.6705 60.8914 70.3181C2.00024 54 11.5002 59.5 8.00024 71.5C7.23358 72.9739 2.00411 73.4804 0.564071 74.9908C-5.52058 40.0586 39.6965 57.3283 40.4551 57.3283C58.8672 62.4262 68.3106 64.4589 82.7881 65.3173C88.1831 65.6413 93.4646 65.4307 99.1355 62.2197Z" fill="#FF0049"/>
<path d="M115.004 112.004L44.8724 41.9251C44.8724 41.9251 26.0587 60.9886 20.0876 66.953C7.40312 79.6107 0.563965 74.9906 0.563965 74.9906L37.9481 35.6165L8.77825 6.5556L16.4125 0.036441C16.4125 0.036441 19.252 3.32031 20.8745 4.93998C28.2086 12.1758 44.8724 28.7045 44.8724 28.7045L73.519 0L79.847 6.74186C79.847 6.74186 60.8223 26.3803 53.3747 33.6324C51.8008 35.163 51.9915 35.989 53.4437 37.4264C69.2232 53.0886 103.285 87.1017 103.285 87.1017L115.004 112.004Z" fill="white"/>
</g>
<defs>
<clipPath id="clip0_135_137">
<rect width="115" height="112" fill="white"/>
</clipPath>
</defs>
</svg>
