<svg width="115" height="112" viewBox="0 0 115 112" fill="none" xmlns="http://www.w3.org/2000/svg">
<g clip-path="url(#clip0_117_67)">
<path d="M99.1353 62.2197C98.758 69.9982 93.6145 71.0428 88.8279 71.6705C77.5 71.6705 71 71.6705 60.8912 70.3181C2 54 11.5 59.5 8 71.5C7.23333 72.9739 2.00386 73.4804 0.563827 74.9908C-5.52083 40.0586 39.6963 57.3283 40.4548 57.3283C58.867 62.4262 68.3104 64.4589 82.7878 65.3173C88.1829 65.6413 93.4644 65.4307 99.1353 62.2197Z" fill="#FF0049"/>
<path d="M115.004 112.004L44.8724 41.9251C44.8724 41.9251 26.0587 60.9886 20.0876 66.953C7.40312 79.6107 0.563965 74.9906 0.563965 74.9906L37.9481 35.6165L8.77825 6.5556L16.4125 0.036441C16.4125 0.036441 19.252 3.32031 20.8745 4.93998C28.2086 12.1758 44.8724 28.7045 44.8724 28.7045L73.519 0L79.847 6.74186C79.847 6.74186 60.8223 26.3803 53.3747 33.6324C51.8008 35.163 51.9915 35.989 53.4437 37.4264C69.2232 53.0886 103.285 87.1017 103.285 87.1017L115.004 112.004Z" fill="#464343"/>
</g>
<defs>
<clipPath id="clip0_117_67">
<rect width="115" height="112" fill="white"/>
</clipPath>
</defs>
</svg>
